<svg width="782" height="247" viewBox="0 0 782 247" fill="none" xmlns="http://www.w3.org/2000/svg">
<path opacity="0.1" d="M170.522 69.5821C111.824 50.1468 49.0945 135.737 1 159.5V247H781V22C763.379 37.0296 704.907 19.9904 651.844 24.5823C613.75 27.8788 582.572 60.9168 548.415 47.8757C450.76 10.59 418.565 -14.1546 381.92 11.5823C360.832 26.3937 350.639 28.6408 309.268 58.5821C275.969 82.6813 213.6 83.8453 170.522 69.5821Z" fill="#FFA74F"/>
<path opacity="0.1" d="M220.297 97.4522C159.691 99.0534 48.8466 139.151 1 159V247H781V73.4335C749.601 60.4234 719.696 80.9393 652.911 73.4335C586.125 65.9277 459.53 110.462 417.166 110.462C374.802 110.462 296.054 95.4506 220.297 97.4522Z" fill="#0052FF"/>
<path d="M1 160C48.6626 140.151 162.081 99.0534 222.454 97.4522C297.919 95.4506 376.364 110.462 418.565 110.462C460.767 110.462 586.874 65.9277 653.403 73.4335C719.932 80.9393 749.721 60.4234 781 73.4335" stroke="#0052FF" stroke-width="2"/>
<path d="M0.5 160C48.1626 136.237 113.829 50.1468 172 69.5821C214.691 83.8453 276.5 82.6813 309.5 58.5821C350.5 28.6408 360.601 26.3937 381.5 11.5823C417.815 -14.1546 449.721 10.59 546.5 47.8757C580.35 60.9168 611.248 27.8788 649 24.5823C701.586 19.9904 763.537 37.0296 781 22" stroke="#FFA74F" stroke-width="2"/>
</svg>
