<svg width="783" height="247" viewBox="0 0 783 247" fill="none" xmlns="http://www.w3.org/2000/svg">
<path opacity="0.1" d="M171.022 69.5821C112.324 50.1468 49.5945 135.737 1.5 159.5V247H781.5V63C763.879 78.0296 680.062 19.4081 627 24C588.906 27.2965 583.072 60.9168 548.915 47.8757C451.26 10.59 419.065 -14.1546 382.42 11.5823C361.332 26.3937 352.871 39.6408 311.5 69.5821C278.201 93.6813 214.1 83.8453 171.022 69.5821Z" fill="#B71A33"/>
<path opacity="0.1" d="M220.797 97.4522C160.191 99.0534 49.3466 139.151 1.5 159V247H781.5V73.4335C750.101 60.4234 720.196 80.9393 653.411 73.4335C586.625 65.9277 460.03 110.462 417.666 110.462C375.302 110.462 296.554 95.4506 220.797 97.4522Z" fill="#0052FF"/>
<path d="M1.5 160C49.1626 140.151 162.581 99.0534 222.954 97.4522C298.419 95.4506 376.864 110.462 419.065 110.462C461.267 110.462 587.374 65.9277 653.903 73.4335C720.432 80.9393 750.221 60.4234 781.5 73.4335" stroke="#0052FF" stroke-width="2"/>
<path d="M1 160C48.6626 136.237 114.329 50.1468 172.5 69.5821C215.191 83.8453 278 93.6813 311 69.5821C352 39.6408 361.101 26.3937 382 11.5823C418.315 -14.1546 450.221 10.59 547 47.8757C580.85 60.9168 592.748 27.2965 630.5 24C683.086 19.4081 764.537 78.0296 782 63" stroke="#B71A33" stroke-width="2"/>
</svg>
