<svg width="622" height="59" viewBox="0 0 622 59" fill="none" xmlns="http://www.w3.org/2000/svg">
<path d="M462.225 15.1995C454.016 16.5844 443.495 31.5013 438.771 42.8982C434 52.5 405.351 54.0833 383.07 42.8982C355.219 28.9167 315.153 6.97649 297.563 15.1995C279.973 23.4225 270.201 49.8228 251.145 42.8982C232.09 35.9735 238.441 23.4225 216.454 23.4225C194.467 23.4225 206.682 55.9744 189.581 53.3974C172.479 50.8205 162.5 15.1995 154.5 9C146.389 2.71483 129.482 3.94693 111.403 23.4225C96.9401 39.003 64.9851 38.2817 50.8154 35.9735C34.8541 33.0486 2.34533 23.6769 0 9.58974V58.5H622V2.6486C607.83 10.8717 597.081 23.4225 579.491 42.8982C568.83 54.7024 559.748 37.1655 556.038 23.4225C545.288 -16.3942 527.719 7.35538 524.767 15.1995C519.881 28.1833 513.04 23.4225 501.313 23.4225C489.587 23.4225 491.053 29.4816 487.144 35.9735C483.235 42.4653 472.485 13.4684 462.225 15.1995Z" fill="#E9F7EC"/>
<path d="M622 2.6486C607.83 10.8717 597.081 23.4225 579.491 42.8982C568.83 54.7024 559.748 37.1655 556.038 23.4225C545.288 -16.3942 527.719 7.35538 524.767 15.1995C519.881 28.1833 513.04 23.4225 501.313 23.4225C489.587 23.4225 491.053 29.4816 487.144 35.9735C483.235 42.4653 472.485 13.4684 462.225 15.1995C454.016 16.5845 443.495 31.5013 438.771 42.8982C435.206 51.5 405.351 54.0833 383.07 42.8982C355.219 28.9167 315.153 6.9765 297.563 15.1995C279.973 23.4225 270.201 49.8228 251.145 42.8982C232.09 35.9735 238.441 23.4225 216.454 23.4225C194.467 23.4225 206.682 55.9744 189.581 53.3974C172.479 50.8205 162.5 15.1995 154.5 9C146.389 2.71483 129.482 3.94694 111.403 23.4225C96.9401 39.003 64.9851 38.2817 50.8154 35.9735C34.8541 33.0486 2.34533 23.6769 0 9.58975" stroke="#20B03F"/>
</svg>
