<svg width="297" height="223" viewBox="0 0 297 223" fill="none" xmlns="http://www.w3.org/2000/svg">
<g opacity="0.5" clip-path="url(#clip0_684_3412)">
<path d="M279.5 202.31C279.32 209.033 278.194 215.696 276.156 222.104C276.111 222.253 276.061 222.399 276.012 222.548H263.534C263.547 222.415 263.561 222.266 263.574 222.104C264.406 212.536 259.653 154.994 253.918 145.035C254.42 145.843 280.467 171.907 279.5 202.31Z" fill="#E8E8F7"/>
<path d="M278.563 222.104C278.459 222.253 278.351 222.401 278.239 222.548H268.878C268.949 222.421 269.032 222.273 269.127 222.104C270.673 219.312 275.25 210.964 279.499 202.31C284.063 193.01 288.253 183.358 287.9 179.864C288.01 180.652 291.169 204.672 278.563 222.104Z" fill="#E8E8F7"/>
<path d="M235.558 181.41H0V0H235.558V181.41Z" fill="white"/>
<path d="M235.558 181.41H0V0H235.558V181.41ZM3.48035 177.928H232.077V3.48182H3.48035V177.928Z" fill="#E8E8F7"/>
<path d="M61.649 136.748H43.8145C43.3315 136.748 42.8685 136.556 42.527 136.214C42.1855 135.872 41.9934 135.409 41.9928 134.926V110.331C41.9934 109.847 42.1855 109.384 42.527 109.043C42.8685 108.701 43.3315 108.509 43.8145 108.508H61.649C62.1319 108.509 62.5949 108.701 62.9364 109.043C63.278 109.384 63.4701 109.847 63.4706 110.331V134.926C63.4701 135.409 63.278 135.872 62.9364 136.214C62.5949 136.556 62.1319 136.748 61.649 136.748Z" fill="#E8E8F7"/>
<path d="M94.1726 136.748H76.3381C75.8551 136.748 75.3921 136.556 75.0506 136.214C74.7091 135.872 74.517 135.409 74.5164 134.926V87.0019C74.517 86.5188 74.7091 86.0556 75.0506 85.714C75.3921 85.3724 75.8551 85.1802 76.3381 85.1797H94.1726C94.6555 85.1802 95.1185 85.3724 95.46 85.714C95.8015 86.0556 95.9936 86.5188 95.9942 87.0019V134.926C95.9936 135.409 95.8015 135.872 95.46 136.214C95.1185 136.556 94.6555 136.748 94.1726 136.748Z" fill="#E8E8F7"/>
<path d="M126.696 136.748H108.862C108.379 136.748 107.916 136.556 107.574 136.214C107.233 135.872 107.04 135.409 107.04 134.926V110.331C107.04 109.847 107.233 109.384 107.574 109.043C107.916 108.701 108.379 108.509 108.862 108.508H126.696C127.179 108.509 127.642 108.701 127.984 109.043C128.325 109.384 128.517 109.847 128.518 110.331V134.926C128.517 135.409 128.325 135.872 127.984 136.214C127.642 136.556 127.179 136.748 126.696 136.748Z" fill="#E8E8F7"/>
<path d="M159.22 136.748H141.385C140.913 136.759 140.456 136.581 140.115 136.255C139.774 135.929 139.575 135.481 139.563 135.009V77.7108C139.575 77.2387 139.774 76.7905 140.115 76.4644C140.456 76.1384 140.913 75.961 141.385 75.9711H159.22C159.692 75.961 160.148 76.1384 160.49 76.4644C160.831 76.7905 161.03 77.2387 161.041 77.7108V135.009C161.03 135.481 160.831 135.929 160.49 136.255C160.148 136.581 159.692 136.759 159.22 136.748Z" fill="#E8E8F7"/>
<path d="M191.743 136.749H173.909C173.426 136.748 172.963 136.556 172.621 136.214C172.28 135.873 172.088 135.409 172.087 134.926V61.2178C172.088 60.7346 172.28 60.2714 172.621 59.9298C172.963 59.5882 173.426 59.396 173.909 59.3955H191.743C192.226 59.396 192.689 59.5882 193.031 59.9298C193.372 60.2714 193.564 60.7346 193.565 61.2178V134.926C193.564 135.409 193.372 135.873 193.031 136.214C192.689 136.556 192.226 136.748 191.743 136.749Z" fill="#E8E8F7"/>
<path d="M52.7317 101.141C54.7652 101.141 56.4137 99.4922 56.4137 97.4579C56.4137 95.4236 54.7652 93.7744 52.7317 93.7744C50.6983 93.7744 49.0498 95.4236 49.0498 97.4579C49.0498 99.4922 50.6983 101.141 52.7317 101.141Z" fill="#4B4B60"/>
<path d="M85.2553 77.199C87.2887 77.199 88.9372 75.5499 88.9372 73.5155C88.9372 71.4812 87.2887 69.832 85.2553 69.832C83.2218 69.832 81.5734 71.4812 81.5734 73.5155C81.5734 75.5499 83.2218 77.199 85.2553 77.199Z" fill="#4B4B60"/>
<path d="M117.779 101.141C119.812 101.141 121.461 99.4922 121.461 97.4579C121.461 95.4236 119.812 93.7744 117.779 93.7744C115.745 93.7744 114.097 95.4236 114.097 97.4579C114.097 99.4922 115.745 101.141 117.779 101.141Z" fill="#4B4B60"/>
<path d="M150.302 65.5344C152.336 65.5344 153.984 63.8853 153.984 61.851C153.984 59.8166 152.336 58.1675 150.302 58.1675C148.269 58.1675 146.621 59.8166 146.621 61.851C146.621 63.8853 148.269 65.5344 150.302 65.5344Z" fill="#4B4B60"/>
<path d="M182.826 52.0286C184.859 52.0286 186.508 50.3794 186.508 48.3451C186.508 46.3108 184.859 44.6616 182.826 44.6616C180.792 44.6616 179.144 46.3108 179.144 48.3451C179.144 50.3794 180.792 52.0286 182.826 52.0286Z" fill="#4B4B60"/>
<path d="M117.857 98.2829L85.2553 73.8541L53.0999 97.9491L52.364 96.9663L85.2553 72.3197L117.701 96.6326L149.944 61.3336L150.073 61.2812L182.596 48.1714L183.055 49.3105L150.661 62.3678L117.857 98.2829Z" fill="#4B4B60"/>
<path d="M228.321 216.985L222.781 216.984L220.145 195.607L228.322 195.608L228.321 216.985Z" fill="#FFB6B6"/>
<path d="M229.734 222.358L211.871 222.357V222.131C211.871 220.286 212.603 218.517 213.907 217.213C215.211 215.908 216.98 215.175 218.823 215.175H218.824L229.734 215.176L229.734 222.358Z" fill="#4B4B60"/>
<path d="M208.522 126.504L211.668 176.637L222.227 211.924L230.409 212.517L226.3 169.511L228.102 140.95C228.102 140.95 236.641 134.582 231.92 126.917L208.522 126.504Z" fill="#4B4B60"/>
<path d="M231.936 216.985L226.396 216.984L223.76 195.607L231.937 195.608L231.936 216.985Z" fill="#FFB6B6"/>
<path d="M233.349 222.358L215.486 222.357V222.131C215.486 220.286 216.218 218.517 217.522 217.213C218.826 215.908 220.595 215.175 222.438 215.175H222.439L233.349 215.176L233.349 222.358Z" fill="#4B4B60"/>
<path d="M212.137 126.504L215.282 176.637L225.842 211.924L234.024 212.517L229.915 169.511L231.717 140.95C231.717 140.95 240.256 134.582 235.534 126.917L212.137 126.504Z" fill="#4B4B60"/>
<path d="M229.187 134.268C219.753 134.268 208.649 128.5 208.006 128.161L207.827 128.067L229.479 72.806L240.202 67.7379C241.028 67.3477 241.943 67.185 242.852 67.2666C243.762 67.3482 244.633 67.6712 245.376 68.2022C246.119 68.7332 246.707 69.453 247.079 70.2872C247.452 71.1215 247.595 72.04 247.493 72.9479L243.238 111.139L238.796 130.919L238.749 130.966C236.297 133.389 232.869 134.268 229.187 134.268Z" fill="#4B4B60"/>
<path d="M194.588 97.6857C195.149 97.3299 195.781 97.1014 196.44 97.0164C197.099 96.9313 197.768 96.9919 198.401 97.1937C199.034 97.3955 199.615 97.7337 200.103 98.1845C200.591 98.6352 200.975 99.1876 201.226 99.8026L217.35 98.9215L213.119 106.171L198.457 105.897C197.396 106.251 196.242 106.204 195.213 105.764C194.185 105.324 193.354 104.522 192.877 103.51C192.4 102.498 192.311 101.346 192.626 100.273C192.941 99.1993 193.639 98.2788 194.588 97.6857Z" fill="#FFB6B6"/>
<path d="M226.407 109.034L210.248 108.622L210.457 97.929L218.098 95.496L230.63 77.9105C231.258 77.0299 232.055 76.2842 232.976 75.7174C233.897 75.1505 234.921 74.7741 235.99 74.6104C237.058 74.4466 238.149 74.4989 239.197 74.764C240.245 75.0292 241.229 75.5019 242.091 76.1542C242.953 76.8064 243.676 77.6251 244.217 78.5616C244.757 79.4981 245.104 80.5336 245.238 81.6067C245.372 82.6799 245.289 83.7689 244.994 84.8094C244.7 85.85 244.2 86.8209 243.524 87.6648L226.407 109.034Z" fill="#4B4B60"/>
<path d="M235.762 65.7014C241.692 65.7014 246.499 60.8925 246.499 54.9603C246.499 49.0282 241.692 44.2192 235.762 44.2192C229.833 44.2192 225.026 49.0282 225.026 54.9603C225.026 60.8925 229.833 65.7014 235.762 65.7014Z" fill="#FFB6B6"/>
<path d="M222.179 46.0095C223.262 44.898 224.67 44.1589 226.2 43.8983C227.692 43.5773 229.327 43.4779 230.52 42.5421C231.876 41.4617 232.472 39.4093 234.135 38.9527C234.859 38.8073 235.608 38.8668 236.3 39.1245C238.957 39.9264 241.316 41.4998 243.078 43.6452C243.493 44.2599 244.022 44.7894 244.637 45.2048C245.004 45.3605 245.363 45.5355 245.712 45.7292C246.095 46.0314 246.397 46.4246 246.589 46.8729C247.788 49.2943 248.064 52.0697 247.366 54.6801C246.951 56.2216 246.2 57.6502 245.758 59.2007C245.315 60.7513 243.267 63.701 242.788 62.9687C242.309 62.2363 241.694 61.5537 241.432 60.7083C240.921 59.0455 241.383 57.3721 240.082 56.2171C239.278 55.5028 237.823 55.0237 237.276 55.9459C237.059 56.303 237.073 56.7551 236.887 57.1257C236.521 57.8491 235.464 57.9937 234.763 57.5778C234.088 57.1116 233.614 56.4077 233.435 55.6068C232.382 52.0445 230.588 49.8023 226.779 51.3257C225.36 51.8953 223.688 52.2796 222.323 51.3031C220.525 50.0193 220.891 47.4742 222.179 46.0095Z" fill="#4B4B60"/>
<path d="M198.069 142.625H180.235C179.752 142.625 179.289 142.433 178.947 142.091C178.606 141.75 178.414 141.286 178.413 140.803V67.0947C178.414 66.6116 178.606 66.1484 178.947 65.8068C179.289 65.4652 179.752 65.273 180.235 65.2725H198.069C198.552 65.273 199.015 65.4652 199.357 65.8068C199.698 66.1484 199.89 66.6116 199.891 67.0947V140.803C199.89 141.286 199.698 141.75 199.357 142.091C199.015 142.433 198.552 142.625 198.069 142.625Z" fill="#0052FF"/>
<path d="M194.136 104.015C194.697 103.659 195.329 103.43 195.988 103.345C196.647 103.26 197.316 103.321 197.949 103.523C198.582 103.725 199.163 104.063 199.651 104.514C200.139 104.964 200.523 105.517 200.774 106.132L216.898 105.251L212.667 112.5L198.005 112.226C196.944 112.58 195.79 112.533 194.762 112.093C193.733 111.653 192.902 110.851 192.425 109.839C191.948 108.827 191.859 107.675 192.174 106.602C192.489 105.528 193.187 104.608 194.136 104.015H194.136Z" fill="#FFB6B6"/>
<path d="M225.955 115.363L209.797 114.95L210.005 104.258L217.646 101.825L230.178 84.2391C230.806 83.3586 231.604 82.6128 232.524 82.046C233.445 81.4791 234.47 81.1027 235.538 80.939C236.607 80.7752 237.697 80.8275 238.745 81.0926C239.793 81.3578 240.777 81.8305 241.639 82.4828C242.502 83.1351 243.224 83.9537 243.765 84.8902C244.305 85.8267 244.653 86.8622 244.786 87.9353C244.92 89.0085 244.837 90.0975 244.542 91.138C244.248 92.1786 243.748 93.1495 243.072 93.9934L225.955 115.363Z" fill="#4B4B60"/>
<path d="M296.548 223H124.384C124.325 223 124.266 222.988 124.211 222.966C124.156 222.943 124.106 222.91 124.064 222.868C124.022 222.826 123.988 222.776 123.966 222.721C123.943 222.666 123.931 222.607 123.931 222.548C123.931 222.488 123.943 222.429 123.966 222.374C123.988 222.32 124.022 222.27 124.064 222.228C124.106 222.186 124.156 222.152 124.211 222.13C124.266 222.107 124.325 222.096 124.384 222.096H296.548C296.608 222.096 296.666 222.107 296.721 222.13C296.776 222.152 296.826 222.186 296.868 222.228C296.911 222.27 296.944 222.32 296.967 222.374C296.99 222.429 297.001 222.488 297.001 222.548C297.001 222.607 296.99 222.666 296.967 222.721C296.944 222.776 296.911 222.826 296.868 222.868C296.826 222.91 296.776 222.943 296.721 222.966C296.666 222.988 296.608 223 296.548 223Z" fill="#E8E8F7"/>
</g>
<defs>
<clipPath id="clip0_684_3412">
<rect width="297" height="223" fill="white"/>
</clipPath>
</defs>
</svg>
