<svg width="192" height="59" viewBox="0 0 192 59" fill="none" xmlns="http://www.w3.org/2000/svg">
<path opacity="0.1" d="M27.3889 9.60315C18.5222 11.2031 6.10185 37.9365 1 51.1031V59H191V38.6985C171.472 22.1985 173.056 19.1032 154.056 41.6032C142.54 55.2405 134.472 34.4925 128.722 19.1032C116.056 -14.8015 96.0219 7.63627 92.8333 16.6985C87.5556 31.6986 89.1389 28.6985 76.4722 28.6985C63.8056 28.6985 62.75 15.1985 51.1389 19.1032C42.6836 21.9465 38.4722 7.60315 27.3889 9.60315Z" fill="#B71A33"/>
<path d="M1 51.1031C6.10185 37.9365 18.5222 11.2031 27.3889 9.60315C38.4722 7.60315 42.6836 21.9465 51.1389 19.1032C62.75 15.1985 63.8056 28.6985 76.4722 28.6985C89.1389 28.6985 87.5556 31.6986 92.8333 16.6985C96.0219 7.63627 116.056 -14.8015 128.722 19.1032C134.472 34.4925 142.54 55.2405 154.056 41.6032C173.056 19.1032 171.472 22.1985 191 38.6985" stroke="#B71A33"/>
</svg>
