<svg width="32" height="32" viewBox="0 0 32 32" fill="none" xmlns="http://www.w3.org/2000/svg">
<mask id="mask0_680_2279" style="mask-type:alpha" maskUnits="userSpaceOnUse" x="0" y="0" width="32" height="32">
<rect width="32" height="32" fill="#C4C4C4"/>
</mask>
<g mask="url(#mask0_680_2279)">
<path d="M16 27C9.9247 27 5 22.0753 5 16C5 9.9247 9.9247 5 16 5C22.0753 5 27 9.9247 27 16C27 22.0753 22.0753 27 16 27ZM16 24.8C18.3339 24.8 20.5722 23.8729 22.2225 22.2225C23.8729 20.5722 24.8 18.3339 24.8 16C24.8 13.6661 23.8729 11.4278 22.2225 9.77746C20.5722 8.12714 18.3339 7.2 16 7.2C13.6661 7.2 11.4278 8.12714 9.77746 9.77746C8.12714 11.4278 7.2 13.6661 7.2 16C7.2 18.3339 8.12714 20.5722 9.77746 22.2225C11.4278 23.8729 13.6661 24.8 16 24.8ZM14.9 20.4H11.6V11.6H14.9V9.4H17.1V11.6H18.2C18.7107 11.6 19.2113 11.7422 19.6458 12.0107C20.0802 12.2792 20.4313 12.6634 20.6597 13.1202C20.8881 13.577 20.9848 14.0883 20.9389 14.597C20.893 15.1056 20.7064 15.5914 20.4 16C20.7064 16.4086 20.893 16.8944 20.9389 17.403C20.9848 17.9117 20.8881 18.423 20.6597 18.8798C20.4313 19.3366 20.0802 19.7208 19.6458 19.9893C19.2113 20.2578 18.7107 20.4 18.2 20.4H17.1V22.6H14.9V20.4ZM13.8 17.1V18.2H18.2C18.3459 18.2 18.4858 18.1421 18.5889 18.0389C18.6921 17.9358 18.75 17.7959 18.75 17.65C18.75 17.5041 18.6921 17.3642 18.5889 17.2611C18.4858 17.1579 18.3459 17.1 18.2 17.1H13.8ZM13.8 13.8V14.9H18.2C18.3459 14.9 18.4858 14.8421 18.5889 14.7389C18.6921 14.6358 18.75 14.4959 18.75 14.35C18.75 14.2041 18.6921 14.0642 18.5889 13.9611C18.4858 13.8579 18.3459 13.8 18.2 13.8H13.8Z" fill="#4B4B60"/>
</g>
</svg>
