<svg width="32" height="32" viewBox="0 0 32 32" fill="none" xmlns="http://www.w3.org/2000/svg">
<path d="M26.3535 16C26.3535 21.523 21.8765 26 16.3535 26C10.8305 26 6.35345 21.523 6.35345 16C6.35345 10.477 10.8305 6 16.3535 6C21.8765 6 26.3535 10.477 26.3535 16ZM24.3535 16C24.3535 13.8783 23.5106 11.8434 22.0103 10.3431C20.51 8.84285 18.4752 8 16.3535 8C14.2317 8 12.1969 8.84285 10.6966 10.3431C9.19631 11.8434 8.35345 13.8783 8.35345 16C8.35345 18.1217 9.19631 20.1566 10.6966 21.6569C12.1969 23.1571 14.2317 24 16.3535 24C18.4752 24 20.51 23.1571 22.0103 21.6569C23.5106 20.1566 24.3535 18.1217 24.3535 16ZM15.3535 20L13.3535 20L13.3535 12L15.3535 12L15.3535 20ZM19.3535 20L17.3535 20L17.3535 12L19.3535 12L19.3535 20Z" fill="#4B4B60"/>
</svg>
