<svg width="32" height="32" viewBox="0 0 32 32" fill="none" xmlns="http://www.w3.org/2000/svg">
<g clip-path="url(#clip0_643_2498)">
<circle cx="16" cy="16" r="15" stroke="#002EB7" stroke-width="2"/>
<path d="M15.22 25.2V22.68C13.6067 22.56 12.4 22.0933 11.6 21.28C10.8 20.4533 10.3467 19.3867 10.24 18.08H12.72C12.8133 18.84 13.0333 19.4467 13.38 19.9C13.74 20.34 14.3533 20.6133 15.22 20.72V16.22C13.6867 15.9533 12.5533 15.5067 11.82 14.88C11.0867 14.2533 10.72 13.3267 10.72 12.1C10.72 10.98 11.1333 10.0467 11.96 9.30001C12.7867 8.55334 13.8733 8.13334 15.22 8.04V6.24001H16.56V8.06C17.8667 8.18 18.9 8.58 19.66 9.26C20.42 9.94001 20.86 10.8933 20.98 12.12H18.62C18.3933 10.8933 17.7067 10.1867 16.56 10V14.1C18.1467 14.3533 19.32 14.7933 20.08 15.42C20.8533 16.0467 21.24 17 21.24 18.28C21.24 19.48 20.82 20.4933 19.98 21.32C19.14 22.1333 18 22.5867 16.56 22.68V25.2H15.22ZM18.18 20C18.58 19.6 18.78 19.1067 18.78 18.52C18.78 17.9333 18.62 17.4867 18.3 17.18C17.9933 16.8733 17.4133 16.6267 16.56 16.44V20.72C17.24 20.6267 17.78 20.3867 18.18 20ZM13.08 11.88C13.08 12.44 13.2267 12.8733 13.52 13.18C13.8133 13.4733 14.38 13.7067 15.22 13.88V9.94001C14.54 10.02 14.0133 10.24 13.64 10.6C13.2667 10.9467 13.08 11.3733 13.08 11.88Z" fill="#002EB7"/>
</g>
<defs>
<clipPath id="clip0_643_2498">
<rect width="32" height="32" fill="white"/>
</clipPath>
</defs>
</svg>
