<svg width="32" height="32" viewBox="0 0 32 32" fill="none" xmlns="http://www.w3.org/2000/svg">
<path d="M14.72 24.7H16.06V22.18C19 21.98 20.74 20.12 20.74 17.78C20.74 15.08 19.02 14.08 16.06 13.6V9.5C17.28 9.7 17.9 10.4 18.12 11.62H20.48C20.24 9.14 18.64 7.8 16.06 7.56V5.74H14.72V7.54C12 7.72 10.22 9.38 10.22 11.6C10.22 14.14 11.76 15.22 14.72 15.72V20.22C12.82 19.98 12.38 18.88 12.22 17.58H9.74C9.94 20 11.3 21.94 14.72 22.18V24.7ZM18.28 18.02C18.28 19.2 17.4 20.04 16.06 20.22V15.94C17.8 16.32 18.28 16.88 18.28 18.02ZM12.58 11.38C12.58 10.38 13.34 9.6 14.72 9.44V13.38C12.96 13.02 12.58 12.42 12.58 11.38Z" fill="#4B4B60"/>
</svg>
