<svg width="32" height="32" viewBox="0 0 32 32" fill="none" xmlns="http://www.w3.org/2000/svg">
<mask id="mask0_9_22" style="mask-type:alpha" maskUnits="userSpaceOnUse" x="0" y="0" width="32" height="32">
<rect width="32" height="32" fill="#C4C4C4"/>
</mask>
<g mask="url(#mask0_9_22)">
</g>
<g clip-path="url(#clip0_9_22)">
<path d="M16 6C21.523 6 26 10.477 26 16C26 21.523 21.523 26 16 26C10.477 26 6 21.523 6 16C6 10.477 10.477 6 16 6ZM16 8C11.582 8 8 11.582 8 16C8 20.418 11.582 24 16 24C20.418 24 24 20.418 24 16C24 11.582 20.418 8 16 8ZM19.833 11.337C20.07 11.171 20.392 11.199 20.596 11.404C20.8 11.608 20.826 11.93 20.659 12.164C18.479 15.21 17.279 16.842 17.061 17.061C16.475 17.646 15.525 17.646 14.939 17.061C14.354 16.475 14.354 15.525 14.939 14.939C15.313 14.566 16.944 13.365 19.833 11.337ZM21.5 15C22.052 15 22.5 15.448 22.5 16C22.5 16.552 22.052 17 21.5 17C20.948 17 20.5 16.552 20.5 16C20.5 15.448 20.948 15 21.5 15ZM10.5 15C11.052 15 11.5 15.448 11.5 16C11.5 16.552 11.052 17 10.5 17C9.948 17 9.5 16.552 9.5 16C9.5 15.448 9.948 15 10.5 15ZM12.818 11.404C13.208 11.794 13.208 12.427 12.818 12.818C12.428 13.208 11.794 13.208 11.404 12.818C11.014 12.428 11.014 11.794 11.404 11.404C11.794 11.014 12.427 11.014 12.818 11.404ZM16 9.5C16.552 9.5 17 9.948 17 10.5C17 11.052 16.552 11.5 16 11.5C15.448 11.5 15 11.052 15 10.5C15 9.948 15.448 9.5 16 9.5Z" fill="#4B4B60"/>
</g>
<defs>
<clipPath id="clip0_9_22">
<rect width="24" height="24" fill="white" transform="translate(4 4)"/>
</clipPath>
</defs>
</svg>
